<svg viewBox="0 0 120 120" xmlns="http://www.w3.org/2000/svg"><path d="M119 60a9.12 9.12 0 0 0-3.64-7.29 9.12 9.12 0 0 0-3.77-14.08A9.11 9.11 0 0 0 104.3 26a9.09 9.09 0 0 0-2.24-7.34l-.29-.34A9.12 9.12 0 0 0 94 15.7a9.11 9.11 0 0 0-12.63-7.29 9.12 9.12 0 0 0-14.08-3.77 9.12 9.12 0 0 0-14.58 0 9.12 9.12 0 0 0-14.08 3.77A9.11 9.11 0 0 0 26 15.7a9.12 9.12 0 0 0-7.73 2.58h-.05l-.29.34A9.09 9.09 0 0 0 15.7 26a9.11 9.11 0 0 0-7.29 12.63 9.12 9.12 0 0 0-3.77 14.08 9.12 9.12 0 0 0 0 14.58 9.12 9.12 0 0 0 3.77 14.08A9.11 9.11 0 0 0 15.7 94a9.09 9.09 0 0 0 2.24 7.34l.29.34h.05A9.12 9.12 0 0 0 26 104.3a9.11 9.11 0 0 0 12.62 7.29 9.12 9.12 0 0 0 14.08 3.77 9.12 9.12 0 0 0 14.58 0 9.12 9.12 0 0 0 14.08-3.77A9.11 9.11 0 0 0 94 104.3a9.12 9.12 0 0 0 7.73-2.58l.29-.34A9.09 9.09 0 0 0 104.3 94a9.11 9.11 0 0 0 7.29-12.62 9.12 9.12 0 0 0 3.77-14.08A9.12 9.12 0 0 0 119 60z" fill="#fff"/><path d="M120 60a9.27 9.27 0 0 0-3.7-7.41 9.27 9.27 0 0 0-3.84-14.32 9.27 9.27 0 0 0-7.41-12.84 9.3 9.3 0 0 0-2.27-7.43c-.11-.12-.2-.23-.31-.34l-15 15a38.8 38.8 0 0 1 0 54.84l15 15c.11-.11.2-.23.31-.34a9.3 9.3 0 0 0 2.27-7.46 9.27 9.27 0 0 0 7.41-12.84 9.27 9.27 0 0 0 3.84-14.32A9.29 9.29 0 0 0 120 60zM87.52 87.42l14.95 14.95z" fill="#e00303"/><path d="M32.48 32.58L17.53 17.63c-.11.11-.21.22-.31.34A9.3 9.3 0 0 0 15 25.43a9.27 9.27 0 0 0-7.46 12.84A9.27 9.27 0 0 0 3.7 52.59a9.27 9.27 0 0 0 0 14.82 9.27 9.27 0 0 0 3.84 14.32A9.27 9.27 0 0 0 15 94.57a9.3 9.3 0 0 0 2.22 7.43c.1.12.2.23.31.34l14.95-15a38.8 38.8 0 0 1 0-54.84z" fill="#004fff"/><g fill="#fff"><path d="M60 21.13a38.74 38.74 0 0 1 27.52 11.45l15-14.95v-.06A9.29 9.29 0 0 0 94.57 15a9.27 9.27 0 0 0-12.84-7.46A9.27 9.27 0 0 0 67.41 3.7a9.27 9.27 0 0 0-14.82 0 9.27 9.27 0 0 0-14.32 3.84A9.27 9.27 0 0 0 25.43 15a9.28 9.28 0 0 0-7.86 2.62v.06l14.95 15A38.74 38.74 0 0 1 60 21.13zM60 98.87a38.74 38.74 0 0 1-27.52-11.45l-14.95 15v.06a9.28 9.28 0 0 0 7.86 2.62 9.27 9.27 0 0 0 12.84 7.41 9.27 9.27 0 0 0 14.32 3.84 9.27 9.27 0 0 0 14.82 0 9.27 9.27 0 0 0 14.32-3.84 9.27 9.27 0 0 0 12.84-7.41 9.29 9.29 0 0 0 7.86-2.62v-.06l-15-15A38.74 38.74 0 0 1 60 98.87zM62.29 57.81a2.46 2.46 0 0 0 1.09.25 2.55 2.55 0 0 0 2.25-1.23 6.25 6.25 0 0 0 .79-3.15v-.63a7 7 0 0 0-.82-3.78 2.54 2.54 0 0 0-2.25-1.22 2.52 2.52 0 0 0-2.22 1.22 6.89 6.89 0 0 0-.82 3.78 6.84 6.84 0 0 0 .82 3.78 2.63 2.63 0 0 0 1.16.98zM50.39 73.84h2.28l-1.14-2.74zM75.48 51.85a1.39 1.39 0 0 0 1.2-.62 3.24 3.24 0 0 0 .44-1.85 3.2 3.2 0 0 0-.44-1.84 1.43 1.43 0 0 0-2.38 0 3.13 3.13 0 0 0-.45 1.83 3.19 3.19 0 0 0 .45 1.84 1.38 1.38 0 0 0 1.18.64zM84.92 54.88a3.12 3.12 0 0 0-.45 1.84 3.16 3.16 0 0 0 .45 1.85 1.41 1.41 0 0 0 1.19.62 1.38 1.38 0 0 0 1.19-.63 3.17 3.17 0 0 0 .44-1.84 3.13 3.13 0 0 0-.44-1.83 1.36 1.36 0 0 0-1.19-.64 1.4 1.4 0 0 0-1.19.63zM73.95 73.84h2.28l-1.14-2.74z"/><path d="M86.11 34a36.87 36.87 0 1 0 0 52 36.82 36.82 0 0 0 0-52zM72.68 46.26A3.57 3.57 0 0 1 75 45.13h.51a3.63 3.63 0 0 1 2.8 1.17 5.1 5.1 0 0 1 0 6.25 3.94 3.94 0 0 1-5.6 0 4.39 4.39 0 0 1-1.09-3.13 7 7 0 0 1 .07-.94 4 4 0 0 1 .99-2.22zm-15.15 2.47A6.54 6.54 0 0 1 66.85 46a6.37 6.37 0 0 1 2.38 2.77 8.76 8.76 0 0 1 .55 1.59 11.63 11.63 0 0 1 .31 2.73 9.93 9.93 0 0 1-.86 4.33 6.2 6.2 0 0 1-5.85 3.72 6.54 6.54 0 0 1-2.75-.57 6.17 6.17 0 0 1-.72-.38l-.09-.07a6.32 6.32 0 0 1-2-2.13c-.11-.19-.22-.37-.32-.57a11.31 11.31 0 0 1 0-8.65zm-12.07-3.17a6.63 6.63 0 0 1 2.73-.56A6.23 6.23 0 0 1 54 48.73a9.88 9.88 0 0 1 .86 4.32 11.79 11.79 0 0 1-.14 1.82 8.53 8.53 0 0 1-.72 2.51 6.56 6.56 0 0 1-9.31 2.77 6.45 6.45 0 0 1-2.39-2.77 11.31 11.31 0 0 1 0-8.65 6.35 6.35 0 0 1 3.12-3.17zM39.33 72.7V74H36v2.61h-1.66v-7.13h5.44v1.32H36v1.9zM32 48.16v-2.89h6.75v15.57h-3.62V48.16zm13.49 28.47l-.91-1.31-.48-.68h-1.53v2h-1.66v-7.16H44a4 4 0 0 1 1.66.31 2.37 2.37 0 0 1 1.46 2.28 2.59 2.59 0 0 1-.13.81 2.34 2.34 0 0 1-.25.56 2.43 2.43 0 0 1-1.1.88l1.62 2.3zm8.34 0l-.64-1.53h-3.34l-.63 1.53h-1.71l3.21-7.15h1.64l3.22 7.15zm9.09 0h-1.36L58 72.29v4.34h-1.67v-7.15h1.37l3.58 4.34v-4.34h1.64zm6.85-.21a4.23 4.23 0 0 1-1.54.32l-.1.4a1.09 1.09 0 0 1 .68.28.81.81 0 0 1 .19.58.85.85 0 0 1-.41.74 2 2 0 0 1-1.1.27 2.33 2.33 0 0 1-.53-.06 1.55 1.55 0 0 1-.43-.15l.25-.69a1.59 1.59 0 0 0 .67.15c.35 0 .53-.11.53-.32s-.17-.3-.5-.3h-.35l.23-.93a4.11 4.11 0 0 1-1.31-.42 3.66 3.66 0 0 1 0-6.45 4.45 4.45 0 0 1 3.69-.15 3.47 3.47 0 0 1 1.24.93l-.17.15-.9.83a2.29 2.29 0 0 0-1.81-.84 2.36 2.36 0 0 0-1.19.3 2 2 0 0 0-.81.81 2.3 2.3 0 0 0-.3 1.18 2.34 2.34 0 0 0 .3 1.19 2 2 0 0 0 .81.81 2.47 2.47 0 0 0 1.19.29 2.27 2.27 0 0 0 1.9-.85l1.07 1a3.23 3.23 0 0 1-1.3.93zm5.43-1.32h-1.79l-.63 1.53h-1.71l1.75-3.91 1.46-3.24h1.64l3.22 7.15h-1.75l-.64-1.53zm4.69 1.53v-7.15h1.66v7.15zm8.44-1a2.34 2.34 0 0 1-1 .81 4.31 4.31 0 0 1-1.67.29 5.67 5.67 0 0 1-1.66-.21 3.72 3.72 0 0 1-1.28-.6l.57-1.24a4.2 4.2 0 0 0 2.37.74 2.07 2.07 0 0 0 1.05-.21.64.64 0 0 0 .34-.55.57.57 0 0 0-.2-.43 1.7 1.7 0 0 0-.55-.23 9.61 9.61 0 0 0-.84-.22 11.74 11.74 0 0 1-1.35-.39 2.24 2.24 0 0 1-.9-.62 1.69 1.69 0 0 1-.37-1.15 2 2 0 0 1 .33-1.13 2.36 2.36 0 0 1 1-.8 4.12 4.12 0 0 1 1.67-.3 5.47 5.47 0 0 1 1.34.17 3.85 3.85 0 0 1 1.15.47l-.51 1.25a4.06 4.06 0 0 0-2-.56 1.91 1.91 0 0 0-1 .23.68.68 0 0 0-.33.59.59.59 0 0 0 .39.55 6 6 0 0 0 1.17.35 11.74 11.74 0 0 1 1.35.39 2.22 2.22 0 0 1 .9.61 1.64 1.64 0 0 1 .37 1.13 1.92 1.92 0 0 1-.34 1.08zM90 56.72a4.39 4.39 0 0 1-1.09 3.13 3.63 3.63 0 0 1-2.8 1.15 3.81 3.81 0 0 1-2-.53A3.58 3.58 0 0 1 82.73 59a5.5 5.5 0 0 1 0-4.54A3.58 3.58 0 0 1 84.11 53a3.8 3.8 0 0 1 2-.52 3.63 3.63 0 0 1 2.8 1.17A4.38 4.38 0 0 1 90 56.72zm-2.53-11.45L76.78 60.84h-2.66l10.69-15.57z"/><path d="M48.19 58.06a2.55 2.55 0 0 0 2.25-1.23 6.84 6.84 0 0 0 .82-3.78 11.23 11.23 0 0 0-.15-1.84 4.8 4.8 0 0 0-.67-1.94 2.54 2.54 0 0 0-2.25-1.22h-.22a2.52 2.52 0 0 0-2 1.2 6.89 6.89 0 0 0-.82 3.78 6.84 6.84 0 0 0 .85 3.8 2.53 2.53 0 0 0 2.19 1.23zM43.93 70.83h-1.36v2.49h1.36a1.72 1.72 0 0 0 1.14-.32 1.13 1.13 0 0 0 .39-.92 1.12 1.12 0 0 0-.39-.92 1.72 1.72 0 0 0-1.14-.33z"/></g><path d="M87.52 32.58a38.85 38.85 0 1 0-55 54.84 38.8 38.8 0 0 0 55 0 38.8 38.8 0 0 0 0-54.84zM86.11 86a36.87 36.87 0 1 1 0-52 36.82 36.82 0 0 1 0 52z" fill="#c7c7c7"/><path d="M61.28 73.82l-3.58-4.34h-1.37v7.15h1.64v-4.34l3.59 4.34h1.36v-7.15h-1.64zM67 71.06a2.36 2.36 0 0 1 1.19-.3 2.29 2.29 0 0 1 1.81.84l.9-.83.17-.15a3.47 3.47 0 0 0-1.24-.93 4.45 4.45 0 0 0-3.69.15 3.66 3.66 0 0 0 0 6.45 4.11 4.11 0 0 0 1.31.42l-.23.93h.35c.33 0 .5.1.5.3s-.18.32-.53.32a1.59 1.59 0 0 1-.67-.15l-.25.69a1.55 1.55 0 0 0 .43.15 2.33 2.33 0 0 0 .53.06 2 2 0 0 0 1.1-.27A.85.85 0 0 0 69 78a.81.81 0 0 0-.22-.57 1.09 1.09 0 0 0-.68-.28l.1-.4a4.23 4.23 0 0 0 1.54-.32 3.23 3.23 0 0 0 1.27-1l-1.07-1a2.27 2.27 0 0 1-1.81.85 2.47 2.47 0 0 1-1.13-.23 2 2 0 0 1-.81-.81 2.34 2.34 0 0 1-.3-1.19 2.3 2.3 0 0 1 .3-1.18 2 2 0 0 1 .81-.81zM50.72 69.48l-3.21 7.15h1.71l.63-1.53h3.34l.64 1.53h1.75l-3.22-7.15zm-.33 4.36l1.14-2.74 1.14 2.74zM46.76 73.45a2.34 2.34 0 0 0 .25-.56 2.59 2.59 0 0 0 .13-.81 2.37 2.37 0 0 0-1.46-2.28 4 4 0 0 0-1.68-.32h-3.09v7.15h1.66v-2h1.53l.48.68.91 1.31h1.79l-1.62-2.3a2.43 2.43 0 0 0 1.1-.87zm-2.83-.13h-1.36v-2.49h1.36a1.72 1.72 0 0 1 1.14.32 1.12 1.12 0 0 1 .39.92 1.13 1.13 0 0 1-.39.92 1.72 1.72 0 0 1-1.14.33zM88.91 53.6a3.63 3.63 0 0 0-2.8-1.17 3.8 3.8 0 0 0-2 .52 3.58 3.58 0 0 0-1.38 1.5 5.5 5.5 0 0 0 0 4.54 3.58 3.58 0 0 0 1.38 1.5 3.81 3.81 0 0 0 2 .53 3.63 3.63 0 0 0 2.8-1.17 5 5 0 0 0 0-6.25zm-1.61 5a1.38 1.38 0 0 1-1.19.63 1.41 1.41 0 0 1-1.19-.62 3.16 3.16 0 0 1-.45-1.85 3.12 3.12 0 0 1 .45-1.84 1.4 1.4 0 0 1 1.19-.63 1.36 1.36 0 0 1 1.19.64 3.13 3.13 0 0 1 .44 1.83 3.17 3.17 0 0 1-.44 1.8zM79.89 69.48h1.66v7.15h-1.66zM74.28 69.48l-1.46 3.24-1.75 3.91h1.71l.63-1.53h3.34l.64 1.53h1.75l-3.22-7.15zM74 73.84l1.14-2.74 1.14 2.74zM76.78 60.84l10.69-15.57h-2.66L74.12 60.84zM69.23 57.38a9.93 9.93 0 0 0 .86-4.33 11.63 11.63 0 0 0-.31-2.73 8.76 8.76 0 0 0-.55-1.59A6.54 6.54 0 0 0 59.91 46a6.44 6.44 0 0 0-2.38 2.77 11.31 11.31 0 0 0 0 8.65c.1.2.21.38.32.57a6.32 6.32 0 0 0 2 2.13l.09.07a6.17 6.17 0 0 0 .72.38 6.54 6.54 0 0 0 2.75.57 6.2 6.2 0 0 0 5.85-3.72zm-3.6-.55a2.55 2.55 0 0 1-2.25 1.23 2.46 2.46 0 0 1-1.09-.25 2.63 2.63 0 0 1-1.13-1 6.84 6.84 0 0 1-.82-3.78 6.89 6.89 0 0 1 .82-3.78 2.52 2.52 0 0 1 2.22-1.22 2.54 2.54 0 0 1 2.25 1.22 7 7 0 0 1 .82 3.78v.63a6.25 6.25 0 0 1-.82 3.17zM75.48 53.68a3.63 3.63 0 0 0 2.8-1.17 5.1 5.1 0 0 0 0-6.25 3.63 3.63 0 0 0-2.8-1.17h-.51a3.57 3.57 0 0 0-2.29 1.13 4 4 0 0 0-1 2.18 7 7 0 0 0-.07.94 4.39 4.39 0 0 0 1.09 3.13 3.63 3.63 0 0 0 2.78 1.21zm0-6.77a1.38 1.38 0 0 1 1.2.63 3.2 3.2 0 0 1 .44 1.84 3.24 3.24 0 0 1-.44 1.85 1.45 1.45 0 0 1-2.38 0 3.19 3.19 0 0 1-.45-1.84 3.13 3.13 0 0 1 .45-1.83 1.37 1.37 0 0 1 1.18-.65zM87.4 72.79a11.74 11.74 0 0 0-1.35-.39 6 6 0 0 1-1.17-.35.59.59 0 0 1-.39-.55.68.68 0 0 1 .33-.59 1.91 1.91 0 0 1 1-.23 4.06 4.06 0 0 1 2 .56l.54-1.24a3.85 3.85 0 0 0-1.15-.47 5.47 5.47 0 0 0-1.34-.17 4.12 4.12 0 0 0-1.67.3 2.36 2.36 0 0 0-1 .8 2 2 0 0 0-.33 1.13 1.69 1.69 0 0 0 .37 1.15 2.24 2.24 0 0 0 .9.62 11.74 11.74 0 0 0 1.35.39c.35.08.63.15.84.22a1.7 1.7 0 0 1 .52.27.57.57 0 0 1 .2.43.64.64 0 0 1-.34.55 2.07 2.07 0 0 1-1.05.21 4.2 4.2 0 0 1-2.37-.74l-.57 1.24a3.72 3.72 0 0 0 1.28.6 5.67 5.67 0 0 0 1.65.23 4.31 4.31 0 0 0 1.67-.29 2.34 2.34 0 0 0 1-.81 1.92 1.92 0 0 0 .34-1.12 1.64 1.64 0 0 0-.37-1.13 2.22 2.22 0 0 0-.89-.62zM44.73 60.15A6.4 6.4 0 0 0 54 57.38a8.53 8.53 0 0 0 .72-2.51 11.79 11.79 0 0 0 .14-1.82 9.88 9.88 0 0 0-.86-4.32A6.23 6.23 0 0 0 48.19 45a6.63 6.63 0 0 0-2.73.56 6.35 6.35 0 0 0-3.12 3.17 11.31 11.31 0 0 0 0 8.65 6.45 6.45 0 0 0 2.39 2.77zM46 49.27a2.52 2.52 0 0 1 2-1.2h.22a2.54 2.54 0 0 1 2.25 1.22 4.8 4.8 0 0 1 .67 1.94 11.23 11.23 0 0 1 .15 1.84 6.84 6.84 0 0 1-.82 3.78 2.55 2.55 0 0 1-2.25 1.23A2.53 2.53 0 0 1 46 56.83a6.84 6.84 0 0 1-.82-3.78 6.89 6.89 0 0 1 .82-3.78zM35.13 60.84h3.63V45.27H32v2.89h3.13zM34.34 76.63h1.67v-2.61h3.32v-1.33h-3.32v-1.88h3.76v-1.33h-5.43z"/></svg>