<svg xmlns="http://www.w3.org/2000/svg" viewBox="0 0 90 16"><path fill="#868e96" d="M14.94 5V2.53a2.24 2.24 0 0 0-2-2.44C11.38.09 10.4 1.8 10.4 3c0 2.35 2.97 1.29 4.54 2z"/><path fill="#868e96" d="M15 7.77c-.08-.79-.73-.86-1.35-.85h-1.48c-1.59-.1-3.64 0-3.64-3.64A3.4 3.4 0 0 0 4.81 0 4.93 4.93 0 0 0 .07 3.57a2.56 2.56 0 0 0-.07.56 2 2 0 0 0 .07.52c1 3.87 10.37-.74 10.37 5 0 1.45 1 2.47 2.51 1.71a4.31 4.31 0 0 0 2-3.2C15 8.1 15 8 15 8a1.71 1.71 0 0 0 0-.23z"/><path fill="#868e96" d="M.07 9.31v4.27c0 2.06 2.05 3.21 4.84 1.79a6.61 6.61 0 0 0 3.61-5C8.53 8.48 1.58 9.5.07 9.31zM23.85 14a3.38 3.38 0 0 1-2.26.78A3.62 3.62 0 0 1 20 14.4a4.09 4.09 0 0 1-.47-.28v.52h-1.38V10.9h1.41v.71a1.58 1.58 0 0 0 .59 1.2 2.11 2.11 0 0 0 1.46.54 1.73 1.73 0 0 0 1.21-.42 1.3 1.3 0 0 0 .45-1 1 1 0 0 0-.38-.82 3.22 3.22 0 0 0-.66-.33 8.36 8.36 0 0 0-1.12-.33 8.3 8.3 0 0 1-1.26-.45 3.37 3.37 0 0 1-.92-.56 2.36 2.36 0 0 1-.76-1.83 2.25 2.25 0 0 1 .89-1.8 3.19 3.19 0 0 1 2.07-.69 5.94 5.94 0 0 1 .71 0 2.69 2.69 0 0 1 .72.2 5.75 5.75 0 0 1 .58.29 2.33 2.33 0 0 1 .53.44 3.57 3.57 0 0 1 .27.32 2.19 2.19 0 0 1 .21.35 1.71 1.71 0 0 1 .12.43q0 .27.08.54t0 .64h-1.47v-.51a1.17 1.17 0 0 0 0-.21 2.34 2.34 0 0 0-.07-.27 1.25 1.25 0 0 0-.12-.26.78.78 0 0 0-.19-.21 1.36 1.36 0 0 0-.58-.25 4.8 4.8 0 0 0-.8-.06A1.56 1.56 0 0 0 20 6.9a1 1 0 0 0-.37.76.84.84 0 0 0 .38.77 4.32 4.32 0 0 0 1.45.57 10.84 10.84 0 0 1 1.54.47 3.33 3.33 0 0 1 1 .62 2.46 2.46 0 0 1 .8 1.91 2.49 2.49 0 0 1-.95 2zM25.8 14.64V9.25h-1.09V7.87h2.55v5.4h1v1.37zM27 6.7a.94.94 0 0 1-1.31 0 .92.92 0 0 1-.27-.64.88.88 0 0 1 .27-.66.94.94 0 0 1 1.31 0 .92.92 0 0 1 .27.64.88.88 0 0 1-.27.66zM29.05 14.64v-8h-1.1V5.27h2.59v8h1.09v1.37zM32.35 14.64V9.25h-1.09V7.87h2.55v5.4h1v1.37zm1.19-7.94a.94.94 0 0 1-1.31 0 .92.92 0 0 1-.23-.64.88.88 0 0 1 .27-.66.94.94 0 0 1 1.31 0 .92.92 0 0 1 .27.64.88.88 0 0 1-.31.66zM40.56 13.58a3 3 0 0 1-.72.69 3.16 3.16 0 0 1-1.82.54 3.23 3.23 0 0 1-2.46-1 3.57 3.57 0 0 1-.95-2.55 3.55 3.55 0 0 1 .94-2.51 3.12 3.12 0 0 1 2.4-1 3.26 3.26 0 0 1 .91.13 2.38 2.38 0 0 1 .81.42h1.18V11h-1.37a3.25 3.25 0 0 0-.15-1 1 1 0 0 0-.33-.53 1.77 1.77 0 0 0-2.37.2 2.31 2.31 0 0 0-.53 1.59 2.66 2.66 0 0 0 .14.91 2.09 2.09 0 0 0 .4.67 1.77 1.77 0 0 0 1.39.57 1.87 1.87 0 0 0 .58-.08 1.61 1.61 0 0 0 .46-.23 2.13 2.13 0 0 0 .39-.42 4.75 4.75 0 0 0 .43-.81l1.28.54a5 5 0 0 1-.61 1.17zM47.25 13.79a3.45 3.45 0 0 1-4.93 0 3.54 3.54 0 0 1-1-2.52 3.54 3.54 0 0 1 1-2.52 3.45 3.45 0 0 1 4.93 0 3.54 3.54 0 0 1 1 2.52 3.54 3.54 0 0 1-1 2.52zM46.18 9.7a1.92 1.92 0 0 0-2.77 0 2.23 2.23 0 0 0-.55 1.56 2.23 2.23 0 0 0 .55 1.56 1.92 1.92 0 0 0 2.77 0 2.23 2.23 0 0 0 .55-1.56 2.23 2.23 0 0 0-.55-1.56zM53.17 14.64V9.75a.69.69 0 0 0-.17-.49.65.65 0 0 0-.48-.15 1.77 1.77 0 0 0-.46.06 2.87 2.87 0 0 0-.52.2 3.55 3.55 0 0 0-.46.25 4 4 0 0 0-.39.29v3.35h1v1.37h-2.46V9.25h-1.1V7.87h2.59v.4a4.88 4.88 0 0 1 .91-.41 3.16 3.16 0 0 1 1-.16 2.45 2.45 0 0 1 .8.13 1.75 1.75 0 0 1 .66.42 1.89 1.89 0 0 1 .56 1.43v3.59h1v1.37zM64.42 14a3.38 3.38 0 0 1-2.26.78 3.62 3.62 0 0 1-1.57-.37 4.09 4.09 0 0 1-.47-.28v.52h-1.41V10.9h1.41v.71a1.58 1.58 0 0 0 .59 1.2 2.11 2.11 0 0 0 1.46.54 1.73 1.73 0 0 0 1.21-.42 1.3 1.3 0 0 0 .45-1 1 1 0 0 0-.38-.82 3.21 3.21 0 0 0-.66-.33 8.35 8.35 0 0 0-1.12-.33 8.3 8.3 0 0 1-1.26-.45 3.37 3.37 0 0 1-.92-.56 2.36 2.36 0 0 1-.76-1.83 2.25 2.25 0 0 1 .89-1.8 3.19 3.19 0 0 1 2.07-.69 5.93 5.93 0 0 1 .71 0 2.69 2.69 0 0 1 .73.2 5.76 5.76 0 0 1 .58.29 2.33 2.33 0 0 1 .53.44 3.65 3.65 0 0 1 .27.32 2.21 2.21 0 0 1 .21.35 1.71 1.71 0 0 1 .12.43q0 .27.08.54t0 .64h-1.48v-.51a1.16 1.16 0 0 0 0-.21 2.36 2.36 0 0 0-.07-.27 1.25 1.25 0 0 0-.12-.26.78.78 0 0 0-.25-.22 1.36 1.36 0 0 0-.58-.25 4.8 4.8 0 0 0-.8-.06 1.56 1.56 0 0 0-1.05.34 1 1 0 0 0-.37.76.84.84 0 0 0 .38.77A4.32 4.32 0 0 0 62 9a10.84 10.84 0 0 1 1.55.49 3.33 3.33 0 0 1 1 .62 2.46 2.46 0 0 1 .77 1.9 2.49 2.49 0 0 1-.9 1.99zM69.73 14.64v-.45a4.24 4.24 0 0 1-.85.39 2.94 2.94 0 0 1-.93.15 2.25 2.25 0 0 1-1.64-.64 2.1 2.1 0 0 1 .12-3.15 2.27 2.27 0 0 1 .85-.47 3.65 3.65 0 0 1 1.06-.15 3.9 3.9 0 0 1 .95.13l.22.06.23.08V9.8a.88.88 0 0 0-.07-.39.55.55 0 0 0-.19-.21 1.24 1.24 0 0 0-.39-.2 2.4 2.4 0 0 0-.57 0 2 2 0 0 0-.38 0l-.44.11-.42.14-.34.12-.46-1.12.76-.25.68-.2a2.68 2.68 0 0 1 .63-.09 4.44 4.44 0 0 1 1.07.12 2.64 2.64 0 0 1 .85.37 1.76 1.76 0 0 1 .56.69 2.21 2.21 0 0 1 .18.91v3.47h1v1.37zm0-2.67a4 4 0 0 0-.53-.23 2.2 2.2 0 0 0-.76-.13 1.86 1.86 0 0 0-.6.08 1 1 0 0 0-.38.22.88.88 0 0 0-.32.69.8.8 0 0 0 .53.74 1.2 1.2 0 0 0 .42.06 2.07 2.07 0 0 0 .91-.24 2.75 2.75 0 0 0 .72-.5zM72.89 14.64v-8h-1.1V5.27h2.59v8h1.09v1.37zM79.74 14.64v-.45a4.25 4.25 0 0 1-.85.39 2.94 2.94 0 0 1-.93.15 2.25 2.25 0 0 1-1.64-.64 2.1 2.1 0 0 1 .12-3.15 2.26 2.26 0 0 1 .85-.47 3.65 3.65 0 0 1 1.06-.15 3.9 3.9 0 0 1 .95.13l.22.06.23.08V9.8a.88.88 0 0 0-.07-.39.55.55 0 0 0-.19-.21 1.23 1.23 0 0 0-.39-.2 2.4 2.4 0 0 0-.56 0 2 2 0 0 0-.39 0l-.44.11-.42.14-.34.12-.46-1.12.76-.25q.32-.11.68-.2a2.69 2.69 0 0 1 .63-.09 4.44 4.44 0 0 1 1.07.12 2.64 2.64 0 0 1 .85.37 1.76 1.76 0 0 1 .56.69 2.21 2.21 0 0 1 .18.91v3.47h1v1.37zm0-2.67a4 4 0 0 0-.53-.23 2.2 2.2 0 0 0-.76-.13 1.86 1.86 0 0 0-.6.08 1 1 0 0 0-.38.22.88.88 0 0 0-.32.69.8.8 0 0 0 .53.74 1.2 1.2 0 0 0 .42.06 2.07 2.07 0 0 0 .91-.24 2.75 2.75 0 0 0 .72-.5zM87.41 14.64v-.56a1.82 1.82 0 0 1-.24.18l-.25.14a3.35 3.35 0 0 1-1.45.33 3.27 3.27 0 0 1-2.44-1 3.39 3.39 0 0 1-1-2.47A3.55 3.55 0 0 1 83 8.73a3.19 3.19 0 0 1 2.42-1 3.13 3.13 0 0 1 1.46.35 2.69 2.69 0 0 1 .51.33V5.27h1.51v8H90v1.37zm-.58-5a1.85 1.85 0 0 0-2.76 0 2.29 2.29 0 0 0-.56 1.59 2.11 2.11 0 0 0 .58 1.51 1.85 1.85 0 0 0 1.39.61 1.8 1.8 0 0 0 1.4-.59 2.23 2.23 0 0 0 .55-1.56 2.16 2.16 0 0 0-.6-1.53z"/></svg>