<svg viewBox="0 0 30 30" xmlns="http://www.w3.org/2000/svg"><ellipse fill="currentColor" cx="15" cy="15" rx="3.92" ry="3.88"/><path fill="currentColor" d="m27 14.76a.94.94 0 0 0 -.06-.15.82.82 0 0 0 -.1-.26c-2.27-3.55-6.56-7.35-11.84-7.35s-9.57 3.8-11.83 7.35a.82.82 0 0 0 -.1.26.94.94 0 0 0 -.06.15 1 1 0 0 0 -.01.24 1 1 0 0 0 0 .24.94.94 0 0 0 .06.15.82.82 0 0 0 .1.26c2.27 3.55 6.56 7.35 11.84 7.35s9.57-3.8 11.83-7.35a.82.82 0 0 0 .1-.26.94.94 0 0 0 .06-.15 1 1 0 0 0 .01-.24 1 1 0 0 0 0-.24zm-12 5.82c-4 0-7.39-2.88-9.32-5.58 1.93-2.7 5.32-5.58 9.32-5.58s7.39 2.88 9.32 5.58c-1.93 2.7-5.32 5.58-9.32 5.58z"/></svg>