<svg viewBox="0 0 30 30" xmlns="http://www.w3.org/2000/svg"><path fill="currentColor" d="m21.77 8.65a1.27 1.27 0 1 1 -1.27-1.27 1.27 1.27 0 0 1 1.27 1.27zm-6.77.43a5.92 5.92 0 1 1 -5.92 5.92 5.92 5.92 0 0 1 5.92-5.92zm0 9.48a3.56 3.56 0 1 1 3.56-3.56 3.56 3.56 0 0 1 -3.56 3.56m4.22-14.56h-8.44a6.77 6.77 0 0 0 -6.78 6.78v8.44a6.77 6.77 0 0 0 6.78 6.78h8.44a6.77 6.77 0 0 0 6.78-6.78v-8.44a6.77 6.77 0 0 0 -6.78-6.78zm4.67 14.41a5.48 5.48 0 0 1 -5.48 5.48h-6.82a5.48 5.48 0 0 1 -5.48-5.48v-6.82a5.48 5.48 0 0 1 5.48-5.48h6.82a5.48 5.48 0 0 1 5.48 5.48z" fill-rule="evenodd"/></svg>