<svg viewBox="0 0 30 30" xmlns="http://www.w3.org/2000/svg"><path fill="currentColor" d="m10.92 24a12.8 12.8 0 0 0 12.84-12.93c0-.2 0-.39 0-.59a9.14 9.14 0 0 0 2.24-2.35 9 9 0 0 1 -2.59.72 4.61 4.61 0 0 0 2-2.52 9.11 9.11 0 0 1 -2.86 1.11 4.52 4.52 0 0 0 -7.69 4.14 12.79 12.79 0 0 1 -9.33-4.75 4.52 4.52 0 0 0 -.61 2.28 4.57 4.57 0 0 0 2 3.79 4.59 4.59 0 0 1 -2-.57v.06a4.53 4.53 0 0 0 3.58 4.45 4.54 4.54 0 0 1 -1.18.16 4.63 4.63 0 0 1 -.85-.08 4.52 4.52 0 0 0 4.21 3.16 9 9 0 0 1 -5.6 1.92 9.51 9.51 0 0 1 -1.08 0 12.71 12.71 0 0 0 6.92 2"/></svg>