<svg xmlns="http://www.w3.org/2000/svg" enable-background="new 0 0 120 120" viewBox="0 0 120 120"><path d="m120 60c0-3-1.5-5.7-3.7-7.4 1.7-2.2 2.4-5.2 1.7-8.1-.8-2.9-2.9-5.1-5.5-6.2 1.1-2.6 1-5.6-.5-8.3-1.5-2.6-4.1-4.2-6.9-4.6.4-2.6-.4-5.4-2.3-7.5-.1-.1-.2-.2-.3-.3s0 0 0-.1c-2.1-2.1-5.1-3-7.9-2.6-.4-2.7-2-5.3-4.6-6.9-2.6-1.5-5.7-1.6-8.3-.5-1.1-2.6-3.3-4.7-6.2-5.5s-5.9-.1-8.1 1.7c-1.7-2.2-4.4-3.7-7.4-3.7s-5.7 1.5-7.4 3.7c-2.2-1.7-5.2-2.4-8.1-1.7-2.9.8-5.1 2.9-6.2 5.5-2.6-1.1-5.6-1-8.3.5-2.6 1.5-4.2 4.1-4.6 6.9-2.8-.4-5.7.5-7.9 2.6v.1c-.1.1-.2.2-.3.3-1.9 2.1-2.6 4.8-2.3 7.5-2.7.4-5.3 2-6.9 4.6-1.5 2.6-1.6 5.7-.5 8.3-2.6 1.1-4.7 3.3-5.5 6.2s-.1 5.9 1.7 8.1c-2.2 1.7-3.7 4.4-3.7 7.4s1.5 5.7 3.7 7.4c-1.7 2.2-2.4 5.2-1.7 8.1.8 2.9 2.9 5.1 5.5 6.2-1.1 2.6-1 5.6.5 8.3 1.5 2.6 4.1 4.2 6.9 4.6-.4 2.6.4 5.4 2.3 7.5.1.1.2.2.3.3v.1c2.1 2.1 5.1 3 7.9 2.6.3 2.8 1.9 5.4 4.6 6.9 2.6 1.5 5.7 1.6 8.3.5 1.1 2.6 3.3 4.7 6.2 5.5s5.9.1 8.1-1.7c1.7 2.2 4.4 3.7 7.4 3.7s5.7-1.5 7.4-3.7c2.2 1.7 5.2 2.4 8.1 1.7 2.9-.8 5.1-2.9 6.2-5.5 2.6 1.1 5.6 1 8.3-.5 2.6-1.5 4.2-4.1 4.6-6.9 2.8.4 5.7-.5 7.9-2.6 0 0 0 0 0-.1.1-.1.2-.2.3-.3 1.9-2.1 2.6-4.8 2.3-7.5 2.8-.3 5.4-1.9 6.9-4.6 1.5-2.6 1.6-5.7.5-8.3 2.6-1.1 4.7-3.3 5.5-6.2s.1-5.9-1.7-8.1c2.2-1.7 3.7-4.4 3.7-7.4z" fill="#fff"/><path d="m120 60c0-3-1.5-5.7-3.7-7.4 1.7-2.2 2.4-5.2 1.7-8.1-.8-2.9-2.9-5.1-5.5-6.2 1.1-2.6 1-5.6-.5-8.3-1.5-2.6-4.1-4.2-6.9-4.6.4-2.6-.4-5.4-2.3-7.5-.1-.1-.2-.2-.3-.3l-15 15c7 7 11.3 16.7 11.3 27.4s-4.3 20.4-11.3 27.4l15 15c.1-.1.2-.2.3-.3 1.9-2.1 2.6-4.8 2.3-7.5 2.8-.3 5.4-1.9 6.9-4.6 1.5-2.6 1.6-5.7.5-8.3 2.6-1.1 4.7-3.3 5.5-6.2s.1-5.9-1.7-8.1c2.2-1.7 3.7-4.4 3.7-7.4z" fill="#e00303"/><path d="m32.5 32.6-15-15c-.1.1-.2.2-.3.3-1.9 2.1-2.6 4.8-2.3 7.5-2.7.4-5.3 2-6.9 4.6-1.5 2.6-1.6 5.7-.5 8.3-2.6 1.1-4.7 3.3-5.5 6.2s-.1 5.9 1.7 8.1c-2.2 1.7-3.7 4.4-3.7 7.4s1.5 5.7 3.7 7.4c-1.7 2.2-2.4 5.2-1.7 8.1.8 2.9 2.9 5.1 5.5 6.2-1.1 2.6-1 5.6.5 8.3 1.5 2.6 4.1 4.2 6.9 4.6-.4 2.6.4 5.4 2.3 7.5.1.1.2.2.3.3l15-15c-7-7-11.3-16.7-11.3-27.4s4.3-20.4 11.3-27.4z" fill="#004fff"/><g fill="#fff"><path d="m60 21.1c10.7 0 20.5 4.4 27.5 11.5l15-15s0 0 0-.1c-2.1-2.1-5.1-3-7.9-2.6-.4-2.7-2-5.3-4.6-6.9-2.6-1.5-5.7-1.6-8.3-.5-1.1-2.6-3.3-4.7-6.2-5.5s-5.9-.1-8.1 1.7c-1.7-2.2-4.4-3.7-7.4-3.7s-5.7 1.5-7.4 3.7c-2.2-1.7-5.2-2.4-8.1-1.7-2.9.8-5.1 2.9-6.2 5.5-2.6-1.1-5.6-1-8.3.5-2.6 1.5-4.2 4.1-4.6 6.9-2.8-.4-5.7.5-7.9 2.6v.1l14.9 15c7.1-7.1 16.9-11.5 27.6-11.5z"/><path d="m60 98.9c-10.7 0-20.5-4.4-27.5-11.5l-14.9 15v.1c2.1 2.1 5.1 3 7.9 2.6.3 2.8 1.9 5.4 4.6 6.9 2.6 1.5 5.7 1.6 8.3.5 1.1 2.6 3.3 4.7 6.2 5.5s5.9.1 8.1-1.7c1.7 2.2 4.4 3.7 7.4 3.7s5.7-1.5 7.4-3.7c2.2 1.7 5.2 2.4 8.1 1.7 2.9-.8 5.1-2.9 6.2-5.5 2.6 1.1 5.6 1 8.3-.5 2.6-1.5 4.2-4.1 4.6-6.9 2.8.4 5.7-.5 7.9-2.6 0 0 0 0 0-.1l-15-15c-7.1 7.1-16.9 11.5-27.6 11.5z"/><path d="m86.1 34c-6.7-6.7-15.9-10.9-26.1-10.9s-19.4 4.2-26.1 10.9c-6.6 6.7-10.8 15.9-10.8 26s4.1 19.3 10.8 26 15.9 10.9 26.1 10.9 19.4-4.2 26.1-10.9c6.6-6.7 10.8-15.9 10.8-26s-4.1-19.3-10.8-26zm-13.4 12.3c.6-.7 1.4-1 2.3-1.1h.5c1.1 0 2.1.4 2.8 1.2s1.1 1.8 1.1 3.1-.4 2.3-1.1 3.1-1.6 1.2-2.8 1.2c-1.1 0-2.1-.4-2.8-1.2s-1.1-1.8-1.1-3.1c0-.3 0-.6.1-.9.1-1 .4-1.8 1-2.3zm-15.2 2.4c.6-1.2 1.4-2.1 2.4-2.8 1-.6 2.2-1 3.5-1s2.5.3 3.5 1c1 .6 1.8 1.6 2.4 2.8.2.5.4 1 .5 1.6.2.8.3 1.7.3 2.7 0 1.7-.3 3.1-.9 4.3s-1.4 2.1-2.4 2.8c-1 .6-2.2 1-3.5 1-1 0-1.9-.2-2.8-.6-.2-.1-.5-.2-.7-.4 0 0-.1 0-.1-.1-.8-.5-1.5-1.2-2-2.1-.1-.2-.2-.4-.3-.6-.6-1.2-.9-2.7-.9-4.3s.5-3.1 1-4.3zm-12-3.1c.8-.4 1.7-.6 2.7-.6 1.3 0 2.5.3 3.5 1 1 .6 1.8 1.6 2.4 2.8s.9 2.7.9 4.3c0 .6-.1 1.2-.1 1.8-.1.9-.4 1.8-.7 2.5-.6 1.2-1.4 2.1-2.4 2.8-1 .6-2.2 1-3.5 1s-2.5-.3-3.5-1c-1-.6-1.8-1.6-2.4-2.8s-.9-2.7-.9-4.3.3-3.1.9-4.3 1.4-2.1 2.4-2.8c.2-.2.4-.3.7-.4zm-6.2 27.1v1.3h-3.3v2.6h-1.7v-7.2h5.4v1.3h-3.7v1.9h3.3zm-7.3-24.5v-2.9h6.8v15.6h-3.6v-12.7zm13.5 28.4-.9-1.3-.5-.7h-1.5v2h-1.7v-7.2h3.1c.6 0 1.2.1 1.7.3s.8.5 1.1.9.4.8.4 1.4c0 .3 0 .6-.1.8-.1.2-.1.4-.3.6-.3.4-.6.7-1.1.9l1.6 2.3zm8.3 0-.6-1.5h-3.3l-.6 1.5h-1.7l3.2-7.2h1.6l3.2 7.2zm9.1 0h-1.4l-3.5-4.3v4.3h-1.6v-7.2h1.4l3.6 4.3v-4.3h1.6v7.2zm6.9-.2c-.5.2-1 .3-1.5.3l-.1.4c.3 0 .5.1.7.3s.1.4.1.6c0 .3-.1.6-.4.7-.3.2-.6.3-1.1.3-.2 0-.4 0-.5-.1-.2 0-.3-.1-.4-.2l.2-.7c.2.1.4.2.7.2.4 0 .5-.1.5-.3s-.2-.3-.5-.3h-.3l.2-.9c-.5-.1-.9-.2-1.3-.4-.6-.3-1.1-.8-1.4-1.3-.3-.6-.5-1.2-.5-1.9s.2-1.3.5-1.9.8-1 1.4-1.3 1.3-.5 2-.5c.6 0 1.2.1 1.7.3.5.2.9.5 1.2.9l-.2.2-.8.8c-.5-.6-1.1-.8-1.8-.8-.4 0-.8.1-1.2.3-.3.2-.6.5-.8.8s-.3.7-.3 1.2c0 .4.1.8.3 1.2.2.3.5.6.8.8s.7.3 1.2.3c.7 0 1.3-.3 1.8-.8l1.1 1c-.4.3-.8.6-1.3.8zm5.4-1.3h-1.8l-.6 1.5h-1.7l1.8-3.9 1.5-3.2h1.6l3.2 7.2h-1.7l-.6-1.5h-1.7zm4.7 1.5v-7.2h1.7v7.2zm8.4-.9c-.2.3-.6.6-1 .8s-1 .3-1.7.3c-.6 0-1.1-.1-1.6-.2-.5-.2-1-.4-1.3-.6l.6-1.2c.3.2.7.4 1.1.5s.8.2 1.3.2.8-.1 1-.2.3-.3.3-.6c0-.2-.1-.3-.2-.4s-.3-.2-.5-.3-.5-.1-.8-.2c-.5-.1-1-.3-1.3-.4s-.6-.3-.9-.6-.4-.7-.4-1.1.1-.8.3-1.1.6-.6 1-.8c.5-.2 1-.3 1.7-.3.5 0 .9.1 1.3.2s.8.3 1.2.5l-.5 1.3c-.7-.4-1.3-.6-2-.6-.5 0-.8.1-1 .2s-.3.3-.3.6.1.4.4.5l1.2.4c.5.1 1 .3 1.3.4s.6.3.9.6c.2.3.4.7.4 1.1-.1.2-.2.6-.5 1zm1.7-19c0 1.3-.4 2.3-1.1 3.1s-1.6 1.2-2.8 1.2c-.7 0-1.4-.2-2-.5s-1-.8-1.4-1.5-.5-1.4-.5-2.3.2-1.6.5-2.3.8-1.2 1.4-1.5 1.3-.5 2-.5c1.1 0 2.1.4 2.8 1.2s1.1 1.8 1.1 3.1zm-2.5-11.4-10.7 15.5h-2.7l10.7-15.6h2.7z"/></g><path d="m87.5 32.6c-7-7.1-16.8-11.5-27.5-11.5s-20.5 4.4-27.5 11.5c-7 7-11.3 16.7-11.3 27.4s4.3 20.4 11.3 27.4c7 7.1 16.8 11.5 27.5 11.5s20.5-4.4 27.5-11.5c7-7 11.3-16.7 11.3-27.4s-4.3-20.4-11.3-27.4zm-1.4 53.4c-6.7 6.7-15.9 10.9-26.1 10.9s-19.4-4.2-26.1-10.9c-6.6-6.7-10.8-15.9-10.8-26s4.1-19.3 10.8-26 15.9-10.9 26.1-10.9 19.4 4.2 26.1 10.9c6.6 6.7 10.8 15.9 10.8 26s-4.1 19.3-10.8 26z" fill="#c7c7c7"/><path d="m61.3 73.8-3.6-4.3h-1.4v7.1h1.7v-4.3l3.6 4.3h1.3v-7.1h-1.6z"/><path d="m67 71.1c.3-.2.7-.3 1.2-.3.7 0 1.3.3 1.8.8l.9-.8.2-.2c-.3-.4-.8-.7-1.2-.9-.5-.2-1.1-.3-1.7-.3-.7 0-1.4.2-2 .5s-1.1.8-1.4 1.3c-.3.6-.5 1.2-.5 1.9s.2 1.3.5 1.9.8 1 1.4 1.3c.4.2.8.4 1.3.4l-.2.9h.3c.3 0 .5.1.5.3s-.2.3-.5.3c-.2 0-.4-.1-.7-.2l-.2.7c.1.1.3.1.4.2.2 0 .3.1.5.1.5 0 .8-.1 1.1-.3s.4-.4.4-.7c0-.2-.1-.4-.2-.6s-.4-.2-.7-.3l.1-.4c.6 0 1.1-.1 1.5-.3.5-.2.9-.5 1.3-1l-1.1-1c-.5.6-1.1.8-1.8.8-.4 0-.8-.1-1.2-.3-.3-.2-.6-.5-.8-.8s-.3-.7-.3-1.2c0-.4.1-.8.3-1.2.2-.2.4-.5.8-.6z"/><path d="m50.7 69.5-3.2 7.2h1.7l.6-1.5h3.3l.6 1.5h1.7l-3.2-7.2zm-.3 4.3 1.1-2.7 1.1 2.7z"/><path d="m46.8 73.4.3-.6c.1-.3.1-.5.1-.8 0-.5-.1-1-.4-1.4s-.6-.7-1.1-.9-1-.3-1.7-.3h-3.1v7.2h1.7v-2h1.5l.5.7.9 1.3h1.8l-1.6-2.3c.4-.2.8-.5 1.1-.9zm-2.9-.1h-1.4v-2.5h1.4c.5 0 .9.1 1.1.3.3.2.4.5.4.9s-.1.7-.4.9c-.2.3-.6.4-1.1.4z"/><path d="m88.9 53.6c-.7-.8-1.7-1.2-2.8-1.2-.7 0-1.4.2-2 .5s-1 .8-1.4 1.5-.5 1.4-.5 2.3.2 1.6.5 2.3.8 1.2 1.4 1.5 1.3.5 2 .5c1.1 0 2.1-.4 2.8-1.2s1.1-1.8 1.1-3.1-.4-2.3-1.1-3.1zm-1.6 5c-.3.4-.7.6-1.2.6s-.9-.2-1.2-.6-.4-1-.4-1.8.1-1.4.4-1.8.7-.6 1.2-.6.9.2 1.2.6.4 1 .4 1.8c0 .7-.1 1.3-.4 1.8z"/><path d="m79.9 69.5h1.7v7.2h-1.7z"/><path d="m74.3 69.5-1.5 3.2-1.8 3.9h1.7l.6-1.5h1.8 1.6l.6 1.5h1.7l-3.2-7.2h-1.5zm-.4 4.3 1.1-2.7 1.1 2.7z"/><path d="m76.8 60.8 10.7-15.5h-2.7l-10.7 15.5z"/><path d="m69.2 57.4c.6-1.2.9-2.7.9-4.3 0-1-.1-1.9-.3-2.7-.1-.6-.3-1.1-.5-1.6-.6-1.2-1.4-2.1-2.4-2.8-1-.6-2.2-1-3.5-1s-2.5.3-3.5 1c-1 .6-1.8 1.6-2.4 2.8s-.9 2.7-.9 4.3.3 3.1.9 4.3c.1.2.2.4.3.6.5.9 1.2 1.6 2 2.1s.1 0 .1.1c.2.1.5.3.7.4.8.4 1.8.6 2.8.6 1.3 0 2.5-.3 3.5-1s1.8-1.6 2.3-2.8zm-3.6-.6c-.5.8-1.3 1.2-2.2 1.2-.4 0-.8-.1-1.1-.2-.4-.2-.8-.5-1.1-1-.5-.8-.8-2.1-.8-3.8s.3-3 .8-3.8 1.3-1.2 2.2-1.2c1 0 1.7.4 2.2 1.2s.8 2.1.8 3.8v.6c0 1.5-.3 2.5-.8 3.2z"/><path d="m75.5 53.7c1.1 0 2.1-.4 2.8-1.2s1.1-1.8 1.1-3.1-.4-2.3-1.1-3.1-1.6-1.2-2.8-1.2c-.2 0-.3 0-.5 0-.9.1-1.7.5-2.3 1.1-.5.6-.9 1.3-1 2.2 0 .3-.1.6-.1.9 0 1.3.4 2.3 1.1 3.1.7.9 1.6 1.3 2.8 1.3zm0-6.8c.5 0 .9.2 1.2.6s.4 1 .4 1.8-.1 1.4-.4 1.8-.7.6-1.2.6-.9-.2-1.2-.6-.4-1-.4-1.8.1-1.4.4-1.8.7-.6 1.2-.6z"/><path d="m87.4 72.8c-.3-.1-.8-.3-1.3-.4s-.9-.2-1.2-.4c-.3-.1-.4-.3-.4-.5s.1-.4.3-.6c.2-.1.6-.2 1-.2.7 0 1.3.2 2 .6l.5-1.3c-.3-.2-.7-.4-1.2-.5-.4-.1-.9-.2-1.3-.2-.7 0-1.2.1-1.7.3s-.8.5-1 .8-.3.7-.3 1.1c0 .5.1.9.4 1.1.2.3.5.5.9.6.3.1.8.3 1.3.4.4.1.6.2.8.2s.4.2.5.3.2.3.2.4c0 .2-.1.4-.3.6-.2.1-.6.2-1 .2s-.8-.1-1.3-.2c-.4-.1-.8-.3-1.1-.5l-.6 1.2c.3.2.7.4 1.3.6.5.2 1.1.2 1.6.2.7 0 1.2-.1 1.7-.3s.8-.5 1-.8.3-.7.3-1.1c0-.5-.1-.9-.4-1.1-.1-.2-.4-.4-.7-.5z"/><path d="m44.7 60.1c1 .6 2.2 1 3.5 1s2.5-.3 3.5-1c1-.6 1.8-1.6 2.4-2.8.4-.7.6-1.6.7-2.5.1-.6.1-1.2.1-1.8 0-1.7-.3-3.1-.9-4.3s-1.4-2.1-2.4-2.8c-1-.6-2.2-1-3.5-1-1 0-1.9.2-2.7.6-.3.1-.5.2-.7.4-1 .6-1.8 1.6-2.4 2.8s-.9 2.7-.9 4.3.3 3.1.9 4.3 1.4 2.2 2.4 2.8zm1.3-10.8c.5-.7 1.2-1.1 2-1.2h.2c1 0 1.7.4 2.2 1.2.3.5.5 1.1.7 1.9.1.5.1 1.1.1 1.8 0 1.7-.3 3-.8 3.8s-1.3 1.2-2.2 1.2-1.7-.4-2.2-1.2-.8-2.1-.8-3.8.2-2.9.8-3.7z"/><path d="m35.1 60.8h3.7v-15.5h-6.8v2.9h3.1z"/><path d="m34.3 76.6h1.7v-2.6h3.3v-1.3h-3.3v-1.9h3.8v-1.3h-5.5z"/></svg>