<svg viewBox="0 0 120 60" xmlns="http://www.w3.org/2000/svg" xmlns:xlink="http://www.w3.org/1999/xlink"><linearGradient id="a" gradientUnits="userSpaceOnUse" x1="116.29" x2="92.33" y1="27.8" y2="50.36"><stop offset="0" stop-color="#ffda00"/><stop offset=".21" stop-color="#fed700"/><stop offset=".34" stop-color="#fbcf02"/><stop offset=".45" stop-color="#f6c004"/><stop offset=".54" stop-color="#f0ac08"/><stop offset=".63" stop-color="#e7910d"/><stop offset=".71" stop-color="#dc7112"/><stop offset=".79" stop-color="#ce4a19"/><stop offset=".86" stop-color="#c01e21"/><stop offset=".87" stop-color="#bd1622"/></linearGradient><path d="m112.24 34.88c-2.35-.25-5.68-.55-8.88-.64a35.9 35.9 0 0 0 -8.36 1 9.42 9.42 0 0 0 -.82 3.87 9.52 9.52 0 0 0 8.35 9.45l.09-.11a1.58 1.58 0 0 1 2.53 0v.08a9.54 9.54 0 0 0 7-13.67zm-4.83 3.12a1.2 1.2 0 1 1 -1.19-1.19 1.19 1.19 0 0 1 1.19 1.19zm-2.61-3.4a1 1 0 1 1 -1 1 1 1 0 0 1 1-1zm-2 2.61a1 1 0 1 1 -1 1 1 1 0 0 1 1.05-1zm.18 3.32a1.2 1.2 0 1 1 -1.19 1.19 1.19 1.19 0 0 1 1.21-1.19zm4.31 4.89a7.81 7.81 0 0 1 -3.51.82 9.06 9.06 0 0 1 -3.75-.82.92.92 0 0 1 .82-1.64 7 7 0 0 0 5.62 0 .92.92 0 0 1 .82 1.64z" fill="url(#a)"/><g fill="#fff"><path d="m104.55 50.52a.84.84 0 0 0 -1.3 0l-2.25 2.86a.83.83 0 0 0 .65 1.35h1.35v1.14a1.58 1.58 0 0 1 -.32 1.1 1.41 1.41 0 0 1 -1 .24 15.69 15.69 0 0 1 -9-3.86 1 1 0 0 0 -1.27 1.46 17.75 17.75 0 0 0 10.15 4.34h.27a3.1 3.1 0 0 0 2.19-.77 3.31 3.31 0 0 0 .92-2.51v-1.14h1.24a.83.83 0 0 0 .64-1.35z"/><path d="m103 42.92a1.2 1.2 0 1 0 -1.19-1.2 1.2 1.2 0 0 0 1.19 1.2z"/><path d="m105 38a1.2 1.2 0 1 0 2.39 0 1.2 1.2 0 0 0 -2.39 0z"/><path d="m103.82 38.18a1 1 0 1 0 -1 1 1 1 0 0 0 1-1z"/><path d="m104.8 34.6a1 1 0 1 0 1 1 1 1 0 0 0 -1-1z"/><path d="m60.54 34.46h-2.73a.78.78 0 0 0 -.75.58 13.13 13.13 0 0 1 -1.48 3.76l-2-3c2-.94 4.56-2.68 5.13-5.47a4.43 4.43 0 0 0 -.71-3.91 5.14 5.14 0 0 0 -4.12-1.64c-3.65 0-6.34 2.07-7 5.39a6.11 6.11 0 0 0 .78 4.4c-3.05 1.34-4.82 3.36-5.39 6.15a5.31 5.31 0 0 0 .91 4.56 6.49 6.49 0 0 0 5.23 2 9.39 9.39 0 0 0 6.11-1.93l.78 1.22a.76.76 0 0 0 .65.36h3.64a.78.78 0 0 0 .64-1.21l-2.4-3.52a17.33 17.33 0 0 0 3.53-6.79.78.78 0 0 0 -.75-1zm-9.49-3.92a2.26 2.26 0 0 1 2.22-2 1.47 1.47 0 0 1 1 .31 1.63 1.63 0 0 1 .09 1.26c-.23 1.09-1.48 2.07-2.75 2.72a3.07 3.07 0 0 1 -.56-2.29zm-1.73 13a2.66 2.66 0 0 1 -2.11-.86 2.19 2.19 0 0 1 -.37-1.87c.29-1.42 1.25-2.22 2.67-3.11l2.94 4.53a5.05 5.05 0 0 1 -3.13 1.33z"/><path d="m103.67 23.68a15.49 15.49 0 0 0 -15.34 13.32 1.15 1.15 0 0 0 -.41-.08h-10a1 1 0 0 0 -1 1v3.08a1 1 0 0 0 1 1h4.93v6a16.91 16.91 0 0 1 -3.51.26c-5.59 0-9.64-3.86-9.64-9.17s4-9.17 9.84-9.17c3.76 0 5.62.66 7.27 1.65a.94.94 0 0 0 .23.1c.44-1.6 6.32-26.08 6.32-26.08h7.15a1.35 1.35 0 0 0 1.24-1l.78-3.31a.77.77 0 0 0 -.77-1h-21.76a26.68 26.68 0 0 0 -4.63-.28c-5.43 0-11.31 2.27-12.78 8.49-2.17 9.21 11.86 7 10.61 12.32-.59 2.52-4 3.59-6.32 3.59a13.49 13.49 0 0 1 -4.94-.94 1.49 1.49 0 0 0 -.66-.09l-4.41-22.16a1 1 0 0 0 -1-.78h-5.27a1.76 1.76 0 0 0 -1.39.78l-6.76 10.13h-12.3l1.34-5.66h11.29a1.34 1.34 0 0 0 1.24-1l.78-3.31a.77.77 0 0 0 -.76-1h-16.83a1.34 1.34 0 0 0 -1.24 1l-6.19 26.22a.77.77 0 0 0 .76 1h4.54a1.35 1.35 0 0 0 1.24-1l2.58-10.94h10l-6.54 9.79c-.57.86-.17 1.82.77 1.82h3.57a1.68 1.68 0 0 0 1.3-.72l13.73-21.54h.09l2.65 16.8a8.26 8.26 0 0 1 2.89.55 6 6 0 0 1 3.64 4.93 22.68 22.68 0 0 0 5.2.51c.5 0 1 0 1.49-.05a13.67 13.67 0 0 0 -4.4 10.33c0 8.76 6.43 14.65 16 14.65a29.7 29.7 0 0 0 9-1.21 1 1 0 0 0 .73-1v-7.44a15.55 15.55 0 0 0 9.67 9.77l4-5.21s0 0 0 0h-.11a9.52 9.52 0 0 1 -8.35-9.45 9.42 9.42 0 0 1 .77-3.91 9.52 9.52 0 0 1 14.22-3.91.81.81 0 1 1 1 .8 9.53 9.53 0 0 1 -5 16.41h-.1.05l3.94 5.08a15.5 15.5 0 0 0 -5.42-30zm-34.57-15.43c.71-3 3.65-3.86 5.77-3.86a15.55 15.55 0 0 1 3.24.33 5.7 5.7 0 0 1 1.72.72.78.78 0 0 0 .59.24h7.15l-4.52 19.16a32.27 32.27 0 0 0 -3.74-.2c-.61 0-1.21 0-1.8.08a9.67 9.67 0 0 0 2.24-4.34c2.25-9.33-11.75-7.3-10.65-12.13z"/></g><path d="m1.22 35.77a3.47 3.47 0 0 1 3.62-3.68 3.94 3.94 0 0 1 1.55.35l.33-1a5.19 5.19 0 0 0 -1.91-.37 4.58 4.58 0 0 0 -4.81 4.64c0 2.54 1.63 3.67 3.77 3.67a4.9 4.9 0 0 0 1.47-.22l.15-1.07a4 4 0 0 1 -1.39.28 2.46 2.46 0 0 1 -2.78-2.6z" fill="#9c9b9b"/><path d="m9.48 33.24a3.26 3.26 0 0 0 -3.35 3.53 2.41 2.41 0 0 0 2.67 2.61c2.1 0 3.27-1.59 3.27-3.58a2.39 2.39 0 0 0 -2.59-2.56zm-.69 5.26a1.46 1.46 0 0 1 -1.51-1.65c0-1.22.71-2.74 2.15-2.74a1.54 1.54 0 0 1 1.49 1.69c0 1.32-.92 2.7-2.13 2.7z" fill="#9c9b9b"/><path d="m16.47 33.24a2.27 2.27 0 0 0 -2 1.07l.18-.93h-1c0 .34-.11.65-.16.9l-1 5h1.08l.62-3c.15-.73.8-2.18 2.14-2.18a1 1 0 0 1 1.06 1.07 4.13 4.13 0 0 1 -.05.55l-.73 3.51h1.08l.65-3.09a6.51 6.51 0 0 0 .13-1.07 1.74 1.74 0 0 0 -2-1.83z" fill="#9c9b9b"/><path d="m22.42 34.11a2.32 2.32 0 0 1 1 .29l.26-.93a4.5 4.5 0 0 0 -1.52-.23c-2 0-3.19 1.7-3.19 3.69a2.32 2.32 0 0 0 2.6 2.45 4.14 4.14 0 0 0 1.12-.14l.2-1a3.53 3.53 0 0 1 -1.19.26c-1 0-1.58-.64-1.58-1.73a2.41 2.41 0 0 1 2.3-2.66z" fill="#9c9b9b"/><path d="m24.69 36.92a2.33 2.33 0 0 1 0-.37h4.12a6 6 0 0 0 .19-1.07 2 2 0 0 0 -2.21-2.24 3.34 3.34 0 0 0 -3.2 3.49 2.38 2.38 0 0 0 2.7 2.65 7.23 7.23 0 0 0 1.71-.25l.17-1a4.4 4.4 0 0 1 -1.65.35c-1.07.02-1.83-.33-1.83-1.56zm1.95-2.81a1.13 1.13 0 0 1 1.24 1.19 4.14 4.14 0 0 1 0 .45h-3a2 2 0 0 1 1.76-1.64z" fill="#9c9b9b"/><path d="m33.21 33.24a2.3 2.3 0 0 0 -2.08 1l.2-.9h-1c-.08.64-.2 1.29-.31 1.94l-1.35 6.33h1.08l.7-3.28a1.81 1.81 0 0 0 1.9 1c2 0 3-1.76 3-3.91a2 2 0 0 0 -2.14-2.18zm-1 5.26a1.42 1.42 0 0 1 -1.47-1.5c0-1.44.83-2.85 2.1-2.85a1.27 1.27 0 0 1 1.31 1.45c0 1.4-.73 2.9-1.96 2.9z" fill="#9c9b9b"/><path d="m38.32 34.25h1.62l.17-.87h-1.61l.37-1.76-1.16.4-.29 1.36h-1.31l-.16.87h1.29l-.51 2.45a8.31 8.31 0 0 0 -.21 1.38 1.27 1.27 0 0 0 1.41 1.3 3.82 3.82 0 0 0 1-.13l.16-.9a1.9 1.9 0 0 1 -.75.15c-.56 0-.79-.22-.79-.63a8.1 8.1 0 0 1 .18-1.1z" fill="#9c9b9b"/></svg>